<?xml version="1.0" encoding="UTF-8" standalone="no"?>
<!DOCTYPE svg PUBLIC "-//W3C//DTD SVG 1.1//EN"
 "http://www.w3.org/Graphics/SVG/1.1/DTD/svg11.dtd">
<!-- Generated by graphviz version 12.2.1 (20241206.2353)
 -->
<!-- Title: pda_machine Pages: 1 -->
<svg width="364pt" height="121pt"
 viewBox="0.00 0.00 363.54 121.26" xmlns="http://www.w3.org/2000/svg" xmlns:xlink="http://www.w3.org/1999/xlink">
<g id="graph0" class="graph" transform="scale(1 1) rotate(0) translate(4 117.26)">
<title>pda_machine</title>
<polygon fill="white" stroke="none" points="-4,4 -4,-117.26 359.54,-117.26 359.54,4 -4,4"/>
<!-- start -->
<g id="node1" class="node">
<title>start</title>
<text text-anchor="middle" x="27" y="-19.08" font-family="Times New Roman,serif" font-size="14.00">start</text>
</g>
<!-- q0 -->
<g id="node2" class="node">
<title>q0</title>
<ellipse fill="none" stroke="black" cx="111.13" cy="-24.13" rx="20.13" ry="20.13"/>
<text text-anchor="middle" x="111.13" y="-19.08" font-family="Times New Roman,serif" font-size="14.00">q0</text>
</g>
<!-- start&#45;&gt;q0 -->
<g id="edge1" class="edge">
<title>start&#45;&gt;q0</title>
<path fill="none" stroke="black" d="M53.99,-24.13C62.04,-24.13 70.98,-24.13 79.33,-24.13"/>
<polygon fill="black" stroke="black" points="79.05,-27.63 89.05,-24.13 79.05,-20.63 79.05,-27.63"/>
</g>
<!-- q0&#45;&gt;q0 -->
<g id="edge2" class="edge">
<title>q0&#45;&gt;q0</title>
<path fill="none" stroke="black" d="M107.6,-44.14C107.16,-53.77 108.34,-62.26 111.13,-62.26 112.7,-62.26 113.76,-59.57 114.31,-55.51"/>
<polygon fill="black" stroke="black" points="117.8,-55.76 114.62,-45.65 110.81,-55.54 117.8,-55.76"/>
<text text-anchor="middle" x="111.13" y="-65.46" font-family="Times New Roman,serif" font-size="14.00">a,z,0z</text>
</g>
<!-- q0&#45;&gt;q0 -->
<g id="edge3" class="edge">
<title>q0&#45;&gt;q0</title>
<path fill="none" stroke="black" d="M105.18,-43.69C102.28,-61.35 104.27,-80.26 111.13,-80.26 116.55,-80.26 118.93,-68.49 118.27,-54.84"/>
<polygon fill="black" stroke="black" points="121.78,-54.77 117.24,-45.2 114.82,-55.51 121.78,-54.77"/>
<text text-anchor="middle" x="111.13" y="-83.46" font-family="Times New Roman,serif" font-size="14.00">a,a,00</text>
</g>
<!-- q1 -->
<g id="node4" class="node">
<title>q1</title>
<ellipse fill="none" stroke="black" cx="215.14" cy="-24.13" rx="20.13" ry="20.13"/>
<text text-anchor="middle" x="215.14" y="-19.08" font-family="Times New Roman,serif" font-size="14.00">q1</text>
</g>
<!-- q0&#45;&gt;q1 -->
<g id="edge4" class="edge">
<title>q0&#45;&gt;q1</title>
<path fill="none" stroke="black" d="M131.32,-24.13C146.04,-24.13 166.66,-24.13 183.64,-24.13"/>
<polygon fill="black" stroke="black" points="183.18,-27.63 193.18,-24.13 183.18,-20.63 183.18,-27.63"/>
<text text-anchor="middle" x="163.14" y="-27.33" font-family="Times New Roman,serif" font-size="14.00">b,0,λ</text>
</g>
<!-- q2 -->
<g id="node3" class="node">
<title>q2</title>
<ellipse fill="none" stroke="black" cx="331.41" cy="-24.13" rx="20.13" ry="20.13"/>
<ellipse fill="none" stroke="black" cx="331.41" cy="-24.13" rx="24.13" ry="24.13"/>
<text text-anchor="middle" x="331.41" y="-19.08" font-family="Times New Roman,serif" font-size="14.00">q2</text>
</g>
<!-- q1&#45;&gt;q2 -->
<g id="edge6" class="edge">
<title>q1&#45;&gt;q2</title>
<path fill="none" stroke="black" d="M235.53,-24.13C251.95,-24.13 275.9,-24.13 295.63,-24.13"/>
<polygon fill="black" stroke="black" points="295.46,-27.63 305.46,-24.13 295.46,-20.63 295.46,-27.63"/>
<text text-anchor="middle" x="271.27" y="-27.33" font-family="Times New Roman,serif" font-size="14.00">λ,z,Az</text>
</g>
<!-- q1&#45;&gt;q1 -->
<g id="edge5" class="edge">
<title>q1&#45;&gt;q1</title>
<path fill="none" stroke="black" d="M205.93,-42.18C204.05,-52.58 207.12,-62.26 215.14,-62.26 220.03,-62.26 223.08,-58.67 224.3,-53.5"/>
<polygon fill="black" stroke="black" points="227.79,-53.71 224.35,-43.69 220.79,-53.67 227.79,-53.71"/>
<text text-anchor="middle" x="215.14" y="-65.46" font-family="Times New Roman,serif" font-size="14.00">b,0,λ</text>
</g>
</g>
</svg>
